<?xml version="1.0" standalone="no"?>
<!DOCTYPE svg PUBLIC "-//W3C//DTD SVG 1.1//EN" "http://www.w3.org/Graphics/SVG/1.1/DTD/svg11.dtd" >
<svg xmlns="http://www.w3.org/2000/svg" xmlns:xlink="http://www.w3.org/1999/xlink" version="1.1">
<metadata>
Created by FontForge 20181214 at Thu Sep 26 10:17:51 2013
 By convertio
Copyright hy60koshk 2013
</metadata>
<defs>
<font id="Gnomoria_rus" horiz-adv-x="896" >
  <font-face 
    font-family="Gnomoria_rus"
    font-weight="400"
    font-stretch="normal"
    units-per-em="1024"
    panose-1="0 0 4 0 0 0 0 0 0 0"
    ascent="819"
    descent="-205"
    x-height="768"
    cap-height="1152"
    bbox="0 -384 1152 1408"
    underline-thickness="51"
    underline-position="77"
    unicode-range="U+0020-2020"
  />
<missing-glyph horiz-adv-x="0" 
d="M576 163v183h-184v-183h184zM759 377v184h-367v-184h367zM576 590v184h-184v-184h184zM759 805v182h-183q-77 0 -130 -53q-54 -54 -54 -129h367zM0 0v1152h1152v-1152h-1152z" />
    <glyph glyph-name=".notdef" horiz-adv-x="0" 
d="M576 163v183h-184v-183h184zM759 377v184h-367v-184h367zM576 590v184h-184v-184h184zM759 805v182h-183q-77 0 -130 -53q-54 -54 -54 -129h367zM0 0v1152h1152v-1152h-1152z" />
    <glyph glyph-name="glyph1" horiz-adv-x="0" 
 />
    <glyph glyph-name="glyph2" horiz-adv-x="384" 
 />
    <glyph glyph-name="space" unicode=" " horiz-adv-x="384" 
 />
    <glyph glyph-name="exclam" unicode="!" horiz-adv-x="512" 
d="M0 0v256h256v-256h-256zM0 384v640h128v128h256v-512h-128v-256h-256z" />
    <glyph glyph-name="quotedbl" unicode="&#x22;" horiz-adv-x="768" 
d="M0 640v128h128v-128h-128zM384 640v128h128v-128h-128zM128 768v128h-128v256h256v-384h-128zM512 768v128h-128v256h256v-384h-128z" />
    <glyph glyph-name="numbersign" unicode="#" 
d="M512 384v384h-128v-384h128zM128 0v256h-128v128h128v384h-128v128h128v256h256v-256h128v256h128v-256h128v-128h-128v-384h128v-128h-128v-256h-128v256h-128v-256h-256z" />
    <glyph glyph-name="dollar" unicode="$" 
d="M640 256v256h128v-256h-128zM384 640v256h-128v-256h128zM640 768v128h128v-128h-128zM384 0v128h-256v128h-128v128h256v-128h128v256h-256v128h-128v256h128v128h256v128h128v-128h128v-128h-128v-256h128v-128h-128v-256h128v-128h-128v-128h-128z" />
    <glyph glyph-name="percent" unicode="%" 
d="M512 0v128h128v-128h-128zM640 128v256h128v-256h-128zM512 384v128h128v-128h-128zM128 640v128h128v-128h-128zM0 768v256h128v-256h-128zM128 1024v128h128v-128h-128zM0 0v256h128v128h128v256h128v128h-128v256h128v-128h128v128h128v128h128v-256h-128v-128h-128
v-256h-128v-128h128v-256h-128v128h-128v-128h-128v-128h-128z" />
    <glyph glyph-name="ampersand" unicode="&#x26;" 
d="M640 384v128h128v-128h-128zM128 640v256h128v-256h-128zM128 0v128h-128v256h128v128h128v128h128v256h-128v128h256v-128h128v-256h-128v-256h128v-128h128v-256h-128v128h-256v256h-128v-256h128v-128h-256z" />
    <glyph glyph-name="quotesingle" unicode="'" horiz-adv-x="384" 
d="M0 640v128h128v-128h-128zM128 768v128h-128v256h256v-384h-128z" />
    <glyph glyph-name="parenleft" unicode="(" horiz-adv-x="512" 
d="M128 0v128h-128v896h128v128h256v-128h-128v-896h128v-128h-256z" />
    <glyph glyph-name="parenright" unicode=")" horiz-adv-x="512" 
d="M0 0v128h128v896h-128v128h256v-128h128v-896h-128v-128h-256z" />
    <glyph glyph-name="asterisk" unicode="*" horiz-adv-x="768" 
d="M0 0v256h128v-256h-128zM512 0v256h128v-256h-128zM128 256v256h128v128h-128v256h128v-128h128v128h128v-256h-128v-128h128v-256h-128v128h-128v-128h-128zM0 896v256h128v-256h-128zM512 896v256h128v-256h-128z" />
    <glyph glyph-name="plus" unicode="+" 
d="M256 256v256h-256v128h256v256h256v-256h256v-128h-256v-256h-256z" />
    <glyph glyph-name="comma" unicode="," horiz-adv-x="384" 
d="M0 -256v128h128v-128h-128zM128 -128v128h-128v256h256v-384h-128z" />
    <glyph glyph-name="hyphen" unicode="-" 
d="M0 512v128h768v-128h-768z" />
    <glyph glyph-name="period" unicode="." horiz-adv-x="384" 
d="M0 0v256h256v-256h-256z" />
    <glyph glyph-name="slash" unicode="/" horiz-adv-x="768" 
d="M0 0v256h128v256h128v256h128v256h256v-256h-128v-256h-128v-256h-128v-256h-256z" />
    <glyph glyph-name="zero" unicode="0" 
d="M512 128v896h-256v-896h256zM128 0v128h-128v896h128v128h512v-128h128v-896h-128v-128h-512z" />
    <glyph glyph-name="one" unicode="1" horiz-adv-x="640" 
d="M0 0v128h128v768h-128v128h128v128h256v-1024h128v-128h-512z" />
    <glyph glyph-name="two" unicode="2" 
d="M0 0v128h128v128h128v128h128v128h128v512h-256v-384h-256v384h128v128h512v-128h128v-512h-128v-128h-128v-128h-128v-128h384v-128h-768z" />
    <glyph glyph-name="three" unicode="3" 
d="M128 0v128h-128v256h256v-256h256v384h-128v128h128v384h-256v-256h-256v256h128v128h512v-128h128v-384h-128v-128h128v-384h-128v-128h-512z" />
    <glyph glyph-name="four" unicode="4" 
d="M384 0v384h-384v512h128v256h256v-256h-128v-384h128v384h128v128h128v-512h128v-128h-128v-384h-256z" />
    <glyph glyph-name="five" unicode="5" 
d="M128 0v128h-128v128h256v-128h256v512h-256v-128h-256v640h768v-128h-512v-256h384v-128h128v-512h-128v-128h-512z" />
    <glyph glyph-name="six" unicode="6" 
d="M512 128v384h-256v-384h256zM128 0v128h-128v896h128v128h512v-128h128v-256h-256v256h-256v-384h384v-128h128v-384h-128v-128h-512z" />
    <glyph glyph-name="seven" unicode="7" 
d="M256 0v384h128v384h128v256h-256v-256h-256v384h768v-384h-128v-384h-128v-384h-256z" />
    <glyph glyph-name="eight" unicode="8" 
d="M512 128v384h-256v-384h256zM512 640v384h-256v-384h256zM128 0v128h-128v384h128v128h-128v384h128v128h512v-128h128v-384h-128v-128h128v-384h-128v-128h-512z" />
    <glyph glyph-name="nine" unicode="9" 
d="M512 640v384h-256v-384h256zM128 0v128h-128v256h256v-256h256v384h-384v128h-128v384h128v128h512v-128h128v-896h-128v-128h-512z" />
    <glyph glyph-name="colon" unicode=":" horiz-adv-x="384" 
d="M0 128v256h256v-256h-256zM0 768v256h256v-256h-256z" />
    <glyph glyph-name="semicolon" unicode=";" horiz-adv-x="384" 
d="M0 -128v128h128v-128h-128zM128 0v128h-128v256h256v-384h-128zM0 768v256h256v-256h-256z" />
    <glyph glyph-name="less" unicode="&#x3c;" 
d="M256 0v128h-128v128h-128v256h128v128h128v128h128v-256h384v-256h-384v-256h-128z" />
    <glyph glyph-name="equal" unicode="=" 
d="M0 384v128h768v-128h-768zM0 640v128h768v-128h-768z" />
    <glyph glyph-name="greater" unicode="&#x3e;" 
d="M384 0v256h-384v256h384v256h128v-128h128v-128h128v-256h-128v-128h-128v-128h-128z" />
    <glyph glyph-name="question" unicode="?" 
d="M256 0v128h256v-128h-256zM256 256v256h128v128h128v384h-256v-256h-256v256h128v128h512v-128h128v-384h-128v-128h-128v-256h-256z" />
    <glyph glyph-name="at" unicode="@" 
d="M512 0v128h128v-128h-128zM128 0v128h-128v512h128v128h128v-640h128v-128h-256zM384 128v640h128v-640h-128zM256 768v128h128v-128h-128zM640 128v768h128v-768h-128zM0 896v128h128v-128h-128zM512 896v128h128v-128h-128zM128 1024v128h384v-128h-384z" />
    <glyph glyph-name="A" unicode="A" 
d="M0 0v1024h128v128h512v-128h-384v-384h384v384h128v-1024h-128v512h-384v-512h-256z" />
    <glyph glyph-name="B" unicode="B" 
d="M640 128v384h128v-384h-128zM640 640v384h128v-384h-128zM0 0v1152h640v-128h-384v-384h384v-128h-384v-384h384v-128h-640z" />
    <glyph glyph-name="C" unicode="C" 
d="M640 128v256h128v-256h-128zM640 768v256h128v-256h-128zM128 0v128h-128v896h128v128h512v-128h-384v-896h384v-128h-512z" />
    <glyph glyph-name="D" unicode="D" 
d="M640 128v896h128v-896h-128zM0 0v1152h640v-128h-384v-896h384v-128h-640z" />
    <glyph glyph-name="E" unicode="E" 
d="M0 0v1152h768v-128h-512v-384h384v-128h-384v-384h512v-128h-768z" />
    <glyph glyph-name="F" unicode="F" 
d="M0 0v1152h768v-128h-512v-384h384v-128h-384v-512h-256z" />
    <glyph glyph-name="G" unicode="G" 
d="M640 768v256h128v-256h-128zM128 0v128h-128v896h128v128h512v-128h-384v-896h384v256h-128v128h256v-512h-640z" />
    <glyph glyph-name="H" unicode="H" 
d="M0 0v1152h256v-512h384v512h128v-1152h-128v512h-384v-512h-256z" />
    <glyph glyph-name="I" unicode="I" horiz-adv-x="384" 
d="M0 0v1152h256v-1152h-256z" />
    <glyph glyph-name="J" unicode="J" 
d="M0 128v256h128v-256h-128zM128 0v128h384v1024h256v-1024h-128v-128h-512z" />
    <glyph glyph-name="K" unicode="K" 
d="M0 0v1152h256v-384h128v128h128v128h128v128h128v-256h-128v-128h-128v-128h-128v-128h128v-128h128v-128h128v-256h-128v128h-128v128h-128v128h-128v-384h-256z" />
    <glyph glyph-name="L" unicode="L" 
d="M0 0v1152h256v-1024h512v-128h-768z" />
    <glyph glyph-name="M" unicode="M" 
d="M0 0v1152h256v-256h128v-128h128v128h128v256h128v-1152h-128v640h-128v-256h-128v256h-128v-640h-256z" />
    <glyph glyph-name="N" unicode="N" 
d="M0 0v1152h256v-128h128v-256h128v-256h128v640h128v-1152h-128v128h-128v256h-128v256h-128v-640h-256z" />
    <glyph glyph-name="O" unicode="O" 
d="M640 128v896h128v-896h-128zM128 0v128h-128v896h128v128h512v-128h-384v-896h384v-128h-512z" />
    <glyph glyph-name="P" unicode="P" 
d="M640 512v512h128v-512h-128zM0 0v1152h640v-128h-384v-512h384v-128h-384v-384h-256z" />
    <glyph glyph-name="Q" unicode="Q" 
d="M640 0v128h-128v128h-128v128h256v-128h128v-256h-128zM640 384v640h128v-640h-128zM128 0v128h-128v896h128v128h512v-128h-384v-896h256v-128h-384z" />
    <glyph glyph-name="R" unicode="R" 
d="M640 0v512h128v-512h-128zM640 640v384h128v-384h-128zM0 0v1152h640v-128h-384v-384h384v-128h-384v-512h-256z" />
    <glyph glyph-name="S" unicode="S" 
d="M128 0v128h-128v256h256v-256h384v-128h-512zM640 128v384h128v-384h-128zM640 768v256h128v-256h-128zM128 512v128h-128v384h128v128h512v-128h-384v-384h384v-128h-512z" />
    <glyph glyph-name="T" unicode="T" 
d="M256 0v1024h-256v128h768v-128h-256v-1024h-256z" />
    <glyph glyph-name="U" unicode="U" 
d="M128 0v128h-128v1024h256v-1024h384v-128h-512zM640 128v1024h128v-1024h-128z" />
    <glyph glyph-name="V" unicode="V" 
d="M512 128v256h128v-256h-128zM256 0v128h-128v256h-128v768h256v-768h128v-256h128v-128h-256zM640 384v768h128v-768h-128z" />
    <glyph glyph-name="W" unicode="W" 
d="M0 0v1152h256v-512h128v128h128v-128h128v512h128v-1152h-128v256h-128v128h-128v-128h-128v-256h-256z" />
    <glyph glyph-name="X" unicode="X" 
d="M0 0v384h128v128h128v256h-128v128h-128v256h256v-256h256v128h128v128h128v-256h-128v-128h-128v-256h128v-128h128v-384h-128v256h-128v128h-256v-384h-256z" />
    <glyph glyph-name="Y" unicode="Y" 
d="M256 0v512h-128v128h-128v512h128v-384h128v-128h256v128h128v384h128v-512h-128v-128h-128v-512h-256z" />
    <glyph glyph-name="Z" unicode="Z" 
d="M0 0v256h128v128h128v256h128v256h128v128h-512v128h768v-256h-128v-128h-128v-256h-128v-256h-128v-128h512v-128h-768z" />
    <glyph glyph-name="bracketleft" unicode="[" horiz-adv-x="512" 
d="M0 0v1152h384v-128h-128v-896h128v-128h-384z" />
    <glyph glyph-name="backslash" unicode="\" horiz-adv-x="768" 
d="M384 0v256h-128v256h-128v256h-128v256h256v-256h128v-256h128v-256h128v-256h-256z" />
    <glyph glyph-name="bracketright" unicode="]" horiz-adv-x="512" 
d="M0 0v128h128v896h-128v128h384v-1152h-384z" />
    <glyph glyph-name="asciicircum" unicode="^" 
d="M256 0v384h-256v128h128v128h128v128h256v-128h128v-128h128v-128h-256v-384h-256z" />
    <glyph glyph-name="underscore" unicode="_" 
d="M0 0v128h768v-128h-768z" />
    <glyph glyph-name="grave" unicode="`" 
d="M256 0v128h-128v128h-128v128h256v384h256v-384h256v-128h-128v-128h-128v-128h-256z" />
    <glyph glyph-name="a" unicode="a" 
d="M128 0v128h-128v384h128v128h128v-512h256v-128h-384zM640 0v128h-128v128h128v384h128v-640h-128zM256 640v128h384v-128h-384z" />
    <glyph glyph-name="b" unicode="b" 
d="M640 128v512h128v-512h-128zM0 0v1152h256v-384h384v-128h-384v-512h384v-128h-640z" />
    <glyph glyph-name="c" unicode="c" 
d="M128 0v128h-128v512h128v128h640v-128h-512v-512h512v-128h-640z" />
    <glyph glyph-name="d" unicode="d" 
d="M0 128v512h128v-512h-128zM128 0v128h384v512h-384v128h384v384h256v-1152h-640z" />
    <glyph glyph-name="e" unicode="e" 
d="M640 128v128h128v-128h-128zM128 0v128h-128v512h128v128h512v-128h-384v-128h384v128h128v-256h-512v-256h384v-128h-512z" />
    <glyph glyph-name="f" unicode="f" 
d="M256 0v640h-256v128h256v256h128v128h256v-128h-128v-256h256v-128h-256v-640h-256z" />
    <glyph glyph-name="g" unicode="g" 
d="M0 -256v128h128v-128h-128zM0 128v512h128v-512h-128zM128 -384v128h384v256h-384v128h384v512h-384v128h640v-1024h-128v-128h-512z" />
    <glyph glyph-name="h" unicode="h" 
d="M640 0v640h128v-640h-128zM0 0v1152h256v-384h384v-128h-384v-640h-256z" />
    <glyph glyph-name="i" unicode="i" horiz-adv-x="384" 
d="M0 0v768h256v-768h-256zM0 896v256h256v-256h-256z" />
    <glyph glyph-name="j" unicode="j" horiz-adv-x="512" 
d="M0 -384v128h128v1024h256v-1024h-128v-128h-256zM128 896v256h256v-256h-256z" />
    <glyph glyph-name="k" unicode="k" 
d="M0 0v1152h256v-640h128v128h128v128h256v-128h-128v-128h-128v-128h128v-128h128v-256h-128v128h-128v128h-128v128h-128v-384h-256z" />
    <glyph glyph-name="l" unicode="l" horiz-adv-x="384" 
d="M0 0v1152h256v-1152h-256z" />
    <glyph glyph-name="m" unicode="m" 
d="M0 0v768h640v-128h128v-640h-256v640h-128v-640h-128v640h-128v-640h-128z" />
    <glyph glyph-name="n" unicode="n" 
d="M640 0v640h128v-640h-128zM0 0v768h640v-128h-384v-640h-256z" />
    <glyph glyph-name="o" unicode="o" 
d="M640 128v512h128v-512h-128zM128 0v128h-128v512h128v128h512v-128h-384v-512h384v-128h-512z" />
    <glyph glyph-name="p" unicode="p" 
d="M640 128v512h128v-512h-128zM0 -384v1152h640v-128h-384v-512h384v-128h-384v-384h-256z" />
    <glyph glyph-name="q" unicode="q" 
d="M640 128v512h-384v-512h384zM640 -384v384h-512v128h-128v512h128v128h640v-1152h-128z" />
    <glyph glyph-name="r" unicode="r" horiz-adv-x="768" 
d="M0 0v768h256v-128h128v-128h-128v-512h-256zM384 640v128h256v-128h-256z" />
    <glyph glyph-name="s" unicode="s" 
d="M0 0v128h640v-128h-640zM640 128v256h128v-256h-128zM128 384v128h-128v128h128v128h640v-128h-512v-128h384v-128h-512z" />
    <glyph glyph-name="t" unicode="t" horiz-adv-x="640" 
d="M256 0v128h-128v512h-128v128h128v128h256v-128h128v-128h-128v-512h128v-128h-256z" />
    <glyph glyph-name="u" unicode="u" 
d="M128 0v128h384v-128h-384zM0 128v640h128v-640h-128zM640 0v128h-128v640h256v-768h-128z" />
    <glyph glyph-name="v" unicode="v" 
d="M512 128v128h128v-128h-128zM256 0v128h-128v128h-128v512h256v-512h128v-128h128v-128h-256zM640 256v512h128v-512h-128z" />
    <glyph glyph-name="w" unicode="w" 
d="M128 0v128h-128v640h256v-512h128v384h128v-384h128v512h128v-640h-128v-128h-128v128h-128v-128h-256z" />
    <glyph glyph-name="x" unicode="x" 
d="M0 0v128h128v128h128v256h-128v128h-128v128h256v-128h128v-128h128v128h128v128h128v-256h-128v-256h128v-256h-128v128h-128v128h-128v-128h-128v-128h-256z" />
    <glyph glyph-name="y" unicode="y" 
d="M128 -384v128h512v-128h-512zM640 -256v256h-512v128h-128v640h256v-640h384v640h128v-1024h-128z" />
    <glyph glyph-name="z" unicode="z" 
d="M0 0v128h128v128h128v256h128v128h-384v128h768v-128h-128v-128h-128v-256h-128v-128h384v-128h-768z" />
    <glyph glyph-name="braceleft" unicode="{" horiz-adv-x="640" 
d="M256 0v128h-128v384h-128v128h128v384h128v128h256v-128h-128v-384h-128v-128h128v-384h128v-128h-256z" />
    <glyph glyph-name="bar" unicode="|" horiz-adv-x="384" 
d="M0 0v512h256v-512h-256zM0 640v512h256v-512h-256z" />
    <glyph glyph-name="braceright" unicode="}" horiz-adv-x="640" 
d="M0 0v128h128v384h128v128h-128v384h-128v128h256v-128h128v-384h128v-128h-128v-384h-128v-128h-256z" />
    <glyph glyph-name="asciitilde" unicode="~" 
d="M256 0v256h-128v256h-128v256h768v-256h-128v-256h-128v-256h-256z" />
    <glyph glyph-name="brokenbar" unicode="&#xa6;" horiz-adv-x="384" 
d="M0 0v512h256v-512h-256zM0 640v512h256v-512h-256z" />
    <glyph glyph-name="plusminus" unicode="&#xb1;" 
d="M0 0v128h768v-128h-768zM256 256v256h-256v128h256v256h256v-256h256v-128h-256v-256h-256z" />
    <glyph glyph-name="Agrave" unicode="&#xc0;" 
d="M0 0v1024h128v128h512v-128h-384v-384h384v384h128v-1024h-128v512h-384v-512h-256zM0 1280v128h512v-128h-512z" />
    <glyph glyph-name="Aacute" unicode="&#xc1;" 
d="M0 0v1024h128v128h512v-128h-384v-384h384v384h128v-1024h-128v512h-384v-512h-256zM384 1280v128h384v-128h-384z" />
    <glyph glyph-name="Adieresis" unicode="&#xc4;" 
d="M0 0v1024h128v128h512v-128h-384v-384h384v384h128v-1024h-128v512h-384v-512h-256zM128 1280v128h256v-128h-256zM512 1280v128h128v-128h-128z" />
    <glyph glyph-name="AE" unicode="&#xc6;" 
d="M0 0v1024h128v-384h128v384h-128v128h640v-128h-256v-384h128v-128h-128v-384h256v-128h-512v512h-128v-512h-128z" />
    <glyph glyph-name="Ccedilla" unicode="&#xc7;" 
d="M256 -256v128h256v-128h-256zM640 128v256h128v-256h-128zM640 768v256h128v-256h-128zM512 -128v128h-384v128h-128v896h128v128h512v-128h-384v-896h384v-256h-128z" />
    <glyph glyph-name="Egrave" unicode="&#xc8;" 
d="M0 0v1152h768v-128h-512v-384h384v-128h-384v-384h512v-128h-768zM0 1280v128h512v-128h-512z" />
    <glyph glyph-name="Eacute" unicode="&#xc9;" 
d="M0 0v1152h768v-128h-512v-384h384v-128h-384v-384h512v-128h-768zM384 1280v128h384v-128h-384z" />
    <glyph glyph-name="Edieresis" unicode="&#xcb;" 
d="M0 0v1152h768v-128h-512v-384h384v-128h-384v-384h512v-128h-768zM128 1280v128h256v-128h-256zM512 1280v128h128v-128h-128z" />
    <glyph glyph-name="Igrave" unicode="&#xcc;" horiz-adv-x="640" 
d="M256 0v1152h256v-1152h-256zM0 1280v128h512v-128h-512z" />
    <glyph glyph-name="Iacute" unicode="&#xcd;" horiz-adv-x="512" 
d="M0 0v1152h256v-1152h-256zM0 1280v128h384v-128h-384z" />
    <glyph glyph-name="Idieresis" unicode="&#xcf;" horiz-adv-x="640" 
d="M128 0v1152h256v-1152h-256zM0 1280v128h128v-128h-128zM384 1280v128h128v-128h-128z" />
    <glyph glyph-name="Eth" unicode="&#xd0;" 
d="M640 128v896h128v-896h-128zM128 0v512h-128v128h128v512h512v-128h-256v-384h128v-128h-128v-384h256v-128h-512z" />
    <glyph glyph-name="Ograve" unicode="&#xd2;" 
d="M640 128v896h128v-896h-128zM128 0v128h-128v896h128v128h512v-128h-384v-896h384v-128h-512zM0 1280v128h512v-128h-512z" />
    <glyph glyph-name="Oacute" unicode="&#xd3;" 
d="M640 128v896h128v-896h-128zM128 0v128h-128v896h128v128h512v-128h-384v-896h384v-128h-512zM384 1280v128h384v-128h-384z" />
    <glyph glyph-name="Odieresis" unicode="&#xd6;" 
d="M640 128v896h128v-896h-128zM128 0v128h-128v896h128v128h512v-128h-384v-896h384v-128h-512zM128 1280v128h256v-128h-256zM512 1280v128h128v-128h-128z" />
    <glyph glyph-name="multiply" unicode="&#xd7;" horiz-adv-x="768" 
d="M0 0v256h128v-256h-128zM512 0v256h128v-256h-128zM128 256v256h128v128h-128v256h128v-128h128v128h128v-256h-128v-128h128v-256h-128v128h-128v-128h-128zM0 896v256h128v-256h-128zM512 896v256h128v-256h-128z" />
    <glyph glyph-name="Oslash" unicode="&#xd8;" 
d="M256 256v256h128v-256h-128zM384 512v384h128v-384h-128zM0 0v1024h128v-768h128v-128h384v-128h-640zM640 128v768h-128v128h-384v128h640v-1024h-128z" />
    <glyph glyph-name="Ugrave" unicode="&#xd9;" 
d="M128 0v128h-128v1024h256v-1024h384v-128h-512zM640 128v1024h128v-1024h-128zM0 1280v128h512v-128h-512z" />
    <glyph glyph-name="Uacute" unicode="&#xda;" 
d="M128 0v128h-128v1024h256v-1024h384v-128h-512zM640 128v1024h128v-1024h-128zM384 1280v128h384v-128h-384z" />
    <glyph glyph-name="Udieresis" unicode="&#xdc;" 
d="M128 0v128h-128v1024h256v-1024h384v-128h-512zM640 128v1024h128v-1024h-128zM128 1280v128h256v-128h-256zM512 1280v128h128v-128h-128z" />
    <glyph glyph-name="Yacute" unicode="&#xdd;" 
d="M256 0v512h-128v128h-128v512h128v-384h128v-128h256v128h128v384h128v-512h-128v-128h-128v-512h-256zM384 1152v128h128v-128h-128zM512 1280v128h256v-128h-256z" />
    <glyph glyph-name="germandbls" unicode="&#xdf;" 
d="M384 0v128h256v-128h-256zM640 128v256h128v-256h-128zM512 384v128h128v-128h-128zM384 512v128h128v-128h-128zM512 640v384h128v-384h-128zM0 0v1024h128v128h384v-128h-256v-1024h-256z" />
    <glyph glyph-name="agrave" unicode="&#xe0;" 
d="M128 0v128h-128v384h128v128h128v-512h256v-128h-384zM640 0v128h-128v128h128v384h128v-640h-128zM256 640v128h384v-128h-384zM128 896v128h384v-128h-384z" />
    <glyph glyph-name="aacute" unicode="&#xe1;" 
d="M128 0v128h-128v384h128v128h128v-512h256v-128h-384zM640 0v128h-128v128h128v384h128v-640h-128zM256 640v128h384v-128h-384zM384 896v128h384v-128h-384z" />
    <glyph glyph-name="adieresis" unicode="&#xe4;" 
d="M128 0v128h-128v384h128v128h128v-512h256v-128h-384zM640 0v128h-128v128h128v384h128v-640h-128zM256 640v128h384v-128h-384zM128 896v128h256v-128h-256zM512 896v128h128v-128h-128z" />
    <glyph glyph-name="egrave" unicode="&#xe8;" 
d="M640 128v128h128v-128h-128zM128 0v128h-128v512h128v128h512v-128h-384v-128h384v128h128v-256h-512v-256h384v-128h-512zM0 896v128h512v-128h-512z" />
    <glyph glyph-name="eacute" unicode="&#xe9;" 
d="M640 128v128h128v-128h-128zM128 0v128h-128v512h128v128h512v-128h-384v-128h384v128h128v-256h-512v-256h384v-128h-512zM384 896v128h384v-128h-384z" />
    <glyph glyph-name="edieresis" unicode="&#xeb;" 
d="M640 128v128h128v-128h-128zM128 0v128h-128v512h128v128h512v-128h-384v-128h384v128h128v-256h-512v-256h384v-128h-512zM128 896v128h256v-128h-256zM512 896v128h128v-128h-128z" />
    <glyph glyph-name="igrave" unicode="&#xec;" horiz-adv-x="512" 
d="M128 0v768h256v-768h-256zM128 896v256h256v-256h-256zM0 1280v128h384v-128h-384z" />
    <glyph glyph-name="iacute" unicode="&#xed;" horiz-adv-x="512" 
d="M0 0v768h256v-768h-256zM0 896v256h256v-256h-256zM0 1280v128h384v-128h-384z" />
    <glyph glyph-name="idieresis" unicode="&#xef;" horiz-adv-x="640" 
d="M128 0v768h256v-768h-256zM128 896v256h256v-256h-256zM0 1280v128h128v-128h-128zM384 1280v128h128v-128h-128z" />
    <glyph glyph-name="eth" unicode="&#xf0;" 
d="M640 128v512h128v-512h-128zM128 0v128h-128v512h128v128h384v128h128v-256h-384v-512h384v-128h-512zM384 896v128h128v-128h-128zM128 896v128h-128v128h384v-128h-128v-128h-128zM384 1152v128h128v-128h-128z" />
    <glyph glyph-name="ograve" unicode="&#xf2;" 
d="M640 128v512h128v-512h-128zM128 0v128h-128v512h128v128h512v-128h-384v-512h384v-128h-512zM0 896v128h512v-128h-512z" />
    <glyph glyph-name="oacute" unicode="&#xf3;" 
d="M640 128v512h128v-512h-128zM128 0v128h-128v512h128v128h512v-128h-384v-512h384v-128h-512zM384 896v128h384v-128h-384z" />
    <glyph glyph-name="odieresis" unicode="&#xf6;" 
d="M640 128v512h128v-512h-128zM128 0v128h-128v512h128v128h512v-128h-384v-512h384v-128h-512zM128 896v128h256v-128h-256zM512 896v128h128v-128h-128z" />
    <glyph glyph-name="divide" unicode="&#xf7;" 
d="M256 128v256h256v-256h-256zM0 512v128h768v-128h-768zM256 768v256h256v-256h-256z" />
    <glyph glyph-name="oslash" unicode="&#xf8;" 
d="M384 256v256h128v-256h-128zM0 0v640h128v128h640v-640h-128v384h-128v128h-256v-384h128v-128h256v-128h-640z" />
    <glyph glyph-name="ugrave" unicode="&#xf9;" 
d="M128 0v128h384v-128h-384zM0 128v640h128v-640h-128zM640 0v128h-128v640h256v-768h-128zM0 896v128h384v-128h-384z" />
    <glyph glyph-name="uacute" unicode="&#xfa;" 
d="M128 0v128h384v-128h-384zM0 128v640h128v-640h-128zM640 0v128h-128v640h256v-768h-128zM256 896v128h512v-128h-512z" />
    <glyph glyph-name="udieresis" unicode="&#xfc;" 
d="M128 0v128h384v-128h-384zM0 128v640h128v-640h-128zM640 0v128h-128v640h256v-768h-128zM128 896v128h128v-128h-128zM384 896v128h256v-128h-256z" />
    <glyph glyph-name="yacute" unicode="&#xfd;" 
d="M128 -384v128h512v-128h-512zM640 -256v256h-512v128h-128v640h256v-640h384v640h128v-1024h-128zM384 896v128h384v-128h-384z" />
    <glyph glyph-name="ydieresis" unicode="&#xff;" 
d="M128 -256v128h512v-128h-512zM640 -128v128h-512v128h-128v640h256v-640h384v640h128v-896h-128zM128 896v128h256v-128h-256zM512 896v128h128v-128h-128z" />
    <glyph glyph-name="Ydieresis" unicode="&#x178;" 
d="M256 0v512h-128v128h-128v512h128v-384h128v-128h256v128h128v384h128v-512h-128v-128h-128v-512h-256zM128 1280v128h128v-128h-128zM512 1280v128h128v-128h-128z" />
    <glyph glyph-name="uni0401" unicode="&#x401;" 
d="M0 0v1152h768v-128h-512v-384h384v-128h-384v-384h512v-128h-768zM128 1280v128h256v-128h-256zM512 1280v128h128v-128h-128z" />
    <glyph glyph-name="uni0404" unicode="&#x404;" 
d="M256 0v128h-128v128h-128v640h128v128h128v128h512v-128h-384v-128h-128v-256h384v-128h-384v-256h128v-128h384v-128h-512z" />
    <glyph glyph-name="uni0406" unicode="&#x406;" horiz-adv-x="384" 
d="M0 0v1152h256v-1152h-256z" />
    <glyph glyph-name="uni0407" unicode="&#x407;" horiz-adv-x="640" 
d="M128 0v1152h256v-1152h-256zM0 1280v128h128v-128h-128zM384 1280v128h128v-128h-128z" />
    <glyph glyph-name="uni0410" unicode="&#x410;" 
d="M0 0v1024h128v128h512v-128h-384v-384h384v384h128v-1024h-128v512h-384v-512h-256z" />
    <glyph glyph-name="uni0411" unicode="&#x411;" 
d="M640 128v384h128v-384h-128zM0 0v1152h768v-128h-512v-384h384v-128h-384v-384h384v-128h-640z" />
    <glyph glyph-name="uni0412" unicode="&#x412;" 
d="M640 128v384h128v-384h-128zM640 640v384h128v-384h-128zM0 0v1152h640v-128h-384v-384h384v-128h-384v-384h384v-128h-640z" />
    <glyph glyph-name="uni0413" unicode="&#x413;" 
d="M0 0v1152h768v-128h-512v-1024h-256z" />
    <glyph glyph-name="uni0414" unicode="&#x414;" 
d="M0 -256v384h128v896h128v-896h256v896h-256v128h512v-1408h-128v256h-512v-256h-128z" />
    <glyph glyph-name="uni0415" unicode="&#x415;" 
d="M0 0v1152h768v-128h-512v-384h384v-128h-384v-384h512v-128h-768z" />
    <glyph glyph-name="uni0416" unicode="&#x416;" 
d="M0 0v512h128v-512h-128zM640 0v512h128v-512h-128zM0 640v512h128v-512h-128zM256 0v512h-128v128h128v512h256v-512h128v-128h-128v-512h-256zM640 640v512h128v-512h-128z" />
    <glyph glyph-name="uni0417" unicode="&#x417;" 
d="M128 0v128h-128v128h256v-128h256v384h-256v128h256v384h-256v-128h-256v128h128v128h512v-128h128v-384h-128v-128h128v-384h-128v-128h-512z" />
    <glyph glyph-name="uni0418" unicode="&#x418;" 
d="M0 0v1152h256v-640h128v256h128v256h128v128h128v-1152h-128v640h-128v-256h-128v-256h-128v-128h-256z" />
    <glyph glyph-name="uni0419" unicode="&#x419;" 
d="M0 0v1152h256v-640h128v256h128v256h128v128h128v-1152h-128v640h-128v-256h-128v-256h-128v-128h-256zM384 1152v128h128v-128h-128zM128 1280v128h256v-128h-256zM512 1280v128h128v-128h-128z" />
    <glyph glyph-name="uni041A" unicode="&#x41a;" 
d="M0 0v1152h256v-384h128v128h128v128h128v128h128v-256h-128v-128h-128v-128h-128v-128h128v-128h128v-128h128v-256h-128v128h-128v128h-128v128h-128v-384h-256z" />
    <glyph glyph-name="uni041B" unicode="&#x41b;" 
d="M0 0v128h128v-128h-128zM128 128v896h128v-896h-128zM512 0v1024h-256v128h512v-1152h-256z" />
    <glyph glyph-name="uni041C" unicode="&#x41c;" 
d="M0 0v1152h256v-256h128v-128h128v128h128v256h128v-1152h-128v640h-128v-256h-128v256h-128v-640h-256z" />
    <glyph glyph-name="uni041D" unicode="&#x41d;" 
d="M0 0v1152h256v-512h384v512h128v-1152h-128v512h-384v-512h-256z" />
    <glyph glyph-name="uni041E" unicode="&#x41e;" 
d="M640 128v896h128v-896h-128zM128 0v128h-128v896h128v128h512v-128h-384v-896h384v-128h-512z" />
    <glyph glyph-name="uni041F" unicode="&#x41f;" 
d="M0 0v1152h768v-1152h-128v1024h-384v-1024h-256z" />
    <glyph glyph-name="uni0420" unicode="&#x420;" 
d="M640 512v512h128v-512h-128zM0 0v1152h640v-128h-384v-512h384v-128h-384v-384h-256z" />
    <glyph glyph-name="uni0421" unicode="&#x421;" 
d="M640 128v256h128v-256h-128zM640 768v256h128v-256h-128zM128 0v128h-128v896h128v128h512v-128h-384v-896h384v-128h-512z" />
    <glyph glyph-name="uni0422" unicode="&#x422;" 
d="M256 0v1024h-256v128h768v-128h-256v-1024h-256z" />
    <glyph glyph-name="uni0423" unicode="&#x423;" 
d="M0 0v128h384v-128h-384zM384 128v128h128v-128h-128zM512 256v128h-384v128h-128v640h256v-640h384v-256h-128zM640 512v640h128v-640h-128z" />
    <glyph glyph-name="uni0424" unicode="&#x424;" 
d="M0 384v640h128v-640h-128zM640 384v640h128v-640h-128zM256 0v256h-128v128h128v640h-128v128h512v-128h-128v-640h128v-128h-128v-256h-256z" />
    <glyph glyph-name="uni0425" unicode="&#x425;" 
d="M0 0v384h128v128h128v256h-128v128h-128v256h256v-256h256v128h128v128h128v-256h-128v-128h-128v-256h128v-128h128v-384h-128v256h-128v128h-256v-384h-256z" />
    <glyph glyph-name="uni0426" unicode="&#x426;" 
d="M640 -128v128h-640v1152h256v-1024h256v1024h128v-1024h128v-256h-128z" />
    <glyph glyph-name="uni0427" unicode="&#x427;" 
d="M640 0v384h-512v128h-128v640h256v-640h384v640h128v-1152h-128z" />
    <glyph glyph-name="uni0428" unicode="&#x428;" 
d="M0 0v1152h256v-1024h128v1024h128v-1024h128v1024h128v-1152h-768z" />
    <glyph glyph-name="uni0429" unicode="&#x429;" 
d="M640 -128v128h-640v1152h128v-1024h128v1024h128v-1024h128v1024h128v-1024h128v-256h-128z" />
    <glyph glyph-name="uni042A" unicode="&#x42a;" 
d="M640 128v512h128v-512h-128zM128 0v1024h-128v128h384v-384h256v-128h-256v-512h256v-128h-512z" />
    <glyph glyph-name="uni042B" unicode="&#x42b;" 
d="M640 128v512h128v-512h-128zM0 0v1152h256v-384h384v-128h-384v-512h384v-128h-640z" />
    <glyph glyph-name="uni042C" unicode="&#x42c;" 
d="M640 128v512h128v-512h-128zM0 0v1152h256v-384h384v-128h-384v-512h384v-128h-640z" />
    <glyph glyph-name="uni042D" unicode="&#x42d;" 
d="M0 0v128h384v128h128v256h-384v128h384v256h-128v128h-384v128h512v-128h128v-128h128v-640h-128v-128h-128v-128h-512z" />
    <glyph glyph-name="uni042E" unicode="&#x42e;" 
d="M0 0v1152h128v-512h128v384h128v-896h-128v384h-128v-512h-128zM384 0v128h128v896h-128v128h256v-128h128v-896h-128v-128h-256z" />
    <glyph glyph-name="uni042F" unicode="&#x42f;" 
d="M640 640v384h-384v-384h384zM0 0v512h128v128h-128v384h128v128h640v-1152h-128v512h-384v-512h-256z" />
    <glyph glyph-name="uni0430" unicode="&#x430;" 
d="M128 0v128h-128v384h128v128h128v-512h256v-128h-384zM640 0v128h-128v128h128v384h128v-640h-128zM256 640v128h384v-128h-384z" />
    <glyph glyph-name="uni0431" unicode="&#x431;" 
d="M640 128v512h128v-512h-128zM128 0v128h-128v896h128v128h640v-128h-512v-256h384v-128h-384v-512h384v-128h-512z" />
    <glyph glyph-name="uni0432" unicode="&#x432;" 
d="M640 128v256h128v-256h-128zM640 512v128h128v-128h-128zM0 0v768h640v-128h-384v-128h384v-128h-384v-256h384v-128h-640z" />
    <glyph glyph-name="uni0433" unicode="&#x433;" horiz-adv-x="768" 
d="M0 0v768h640v-128h-384v-640h-256z" />
    <glyph glyph-name="uni0434" unicode="&#x434;" 
d="M0 -128v256h128v512h128v-512h256v512h-256v128h512v-896h-128v128h-512v-128h-128z" />
    <glyph glyph-name="uni0435" unicode="&#x435;" 
d="M640 128v128h128v-128h-128zM128 0v128h-128v512h128v128h512v-128h-384v-128h384v128h128v-256h-512v-256h384v-128h-512z" />
    <glyph glyph-name="uni0436" unicode="&#x436;" 
d="M0 0v384h128v-384h-128zM640 0v384h128v-384h-128zM0 512v256h128v-256h-128zM256 0v384h-128v128h128v256h256v-256h128v-128h-128v-384h-256zM640 512v256h128v-256h-128z" />
    <glyph glyph-name="uni0437" unicode="&#x437;" 
d="M0 128v128h128v-128h-128zM0 512v128h128v-128h-128zM128 0v128h384v256h-128v128h128v128h-384v128h512v-128h128v-128h-128v-128h128v-256h-128v-128h-512z" />
    <glyph glyph-name="uni0438" unicode="&#x438;" 
d="M384 256v256h128v-256h-128zM0 0v768h256v-512h128v-128h-128v-128h-256zM640 0v512h-128v256h256v-768h-128z" />
    <glyph glyph-name="uni0439" unicode="&#x439;" 
d="M384 256v256h128v-256h-128zM0 0v768h256v-512h128v-128h-128v-128h-256zM640 0v512h-128v256h256v-768h-128zM128 896v128h512v-128h-512z" />
    <glyph glyph-name="uni043A" unicode="&#x43a;" 
d="M0 0v768h256v-256h128v128h128v128h256v-128h-128v-128h-128v-128h128v-128h128v-256h-128v128h-128v128h-128v128h-128v-384h-256z" />
    <glyph glyph-name="uni043B" unicode="&#x43b;" 
d="M0 0v128h128v512h128v-640h-256zM512 0v640h-256v128h512v-768h-256z" />
    <glyph glyph-name="uni043C" unicode="&#x43c;" 
d="M0 0v768h256v-128h128v-128h128v128h128v128h128v-768h-128v384h-128v-128h-128v128h-128v-384h-256z" />
    <glyph glyph-name="uni043D" unicode="&#x43d;" 
d="M0 0v768h256v-256h384v256h128v-768h-128v384h-384v-384h-256z" />
    <glyph glyph-name="uni043E" unicode="&#x43e;" 
d="M640 128v512h128v-512h-128zM128 0v128h-128v512h128v128h512v-128h-384v-512h384v-128h-512z" />
    <glyph glyph-name="uni043F" unicode="&#x43f;" 
d="M0 0v768h768v-768h-128v640h-384v-640h-256z" />
    <glyph glyph-name="uni0440" unicode="&#x440;" 
d="M640 128v512h128v-512h-128zM0 -384v1152h640v-128h-384v-512h384v-128h-384v-384h-256z" />
    <glyph glyph-name="uni0441" unicode="&#x441;" 
d="M128 0v128h-128v512h128v128h640v-128h-512v-512h512v-128h-640z" />
    <glyph glyph-name="uni0442" unicode="&#x442;" 
d="M256 0v640h-256v128h768v-128h-256v-640h-256z" />
    <glyph glyph-name="uni0443" unicode="&#x443;" 
d="M128 -384v128h512v-128h-512zM640 -256v256h-512v128h-128v640h256v-640h384v640h128v-1024h-128z" />
    <glyph glyph-name="uni0444" unicode="&#x444;" 
d="M0 128v512h128v-512h-128zM640 128v512h128v-512h-128zM256 -384v384h-128v128h128v512h-128v128h512v-128h-128v-512h128v-128h-128v-384h-256z" />
    <glyph glyph-name="uni0445" unicode="&#x445;" 
d="M0 0v128h128v128h128v256h-128v128h-128v128h256v-128h128v-128h128v128h128v128h128v-256h-128v-256h128v-256h-128v128h-128v128h-128v-128h-128v-128h-256z" />
    <glyph glyph-name="uni0446" unicode="&#x446;" 
d="M640 -128v128h-640v768h256v-640h256v640h128v-640h128v-256h-128z" />
    <glyph glyph-name="uni0447" unicode="&#x447;" 
d="M640 0v256h-512v128h-128v384h256v-384h384v384h128v-768h-128z" />
    <glyph glyph-name="uni0448" unicode="&#x448;" 
d="M0 0v768h256v-640h128v640h128v-640h128v640h128v-768h-768z" />
    <glyph glyph-name="uni0449" unicode="&#x449;" 
d="M640 -128v128h-640v768h128v-640h128v640h128v-640h128v640h128v-640h128v-256h-128z" />
    <glyph glyph-name="uni044A" unicode="&#x44a;" horiz-adv-x="1024" 
d="M768 128v256h128v-256h-128zM128 0v640h-128v128h384v-256h384v-128h-384v-256h384v-128h-640z" />
    <glyph glyph-name="uni044B" unicode="&#x44b;" 
d="M384 128v256h128v-256h-128zM0 0v768h256v-256h128v-128h-128v-256h128v-128h-384zM640 0v768h128v-768h-128z" />
    <glyph glyph-name="uni044C" unicode="&#x44c;" 
d="M640 128v256h128v-256h-128zM0 0v768h256v-256h384v-128h-384v-256h384v-128h-640z" />
    <glyph glyph-name="uni044D" unicode="&#x44d;" 
d="M0 128v128h128v-128h-128zM0 512v128h128v-128h-128zM128 0v128h384v256h-256v128h256v128h-384v128h512v-128h128v-512h-128v-128h-512z" />
    <glyph glyph-name="uni044E" unicode="&#x44e;" 
d="M0 0v768h128v-256h128v128h128v-512h-128v256h-128v-384h-128zM384 0v128h128v512h-128v128h256v-128h128v-512h-128v-128h-256z" />
    <glyph glyph-name="uni044F" unicode="&#x44f;" 
d="M640 384v256h-384v-256h384zM0 0v256h128v128h-128v256h128v128h640v-768h-128v256h-384v-256h-256z" />
    <glyph glyph-name="uni0451" unicode="&#x451;" 
d="M640 128v128h128v-128h-128zM128 0v128h-128v512h128v128h512v-128h-384v-128h384v128h128v-256h-512v-256h384v-128h-512zM128 896v128h256v-128h-256zM512 896v128h128v-128h-128z" />
    <glyph glyph-name="uni0454" unicode="&#x454;" 
d="M640 128v128h128v-128h-128zM640 512v128h128v-128h-128zM128 0v128h-128v512h128v128h512v-128h-384v-128h256v-128h-256v-256h384v-128h-512z" />
    <glyph glyph-name="uni0456" unicode="&#x456;" horiz-adv-x="384" 
d="M0 0v768h256v-768h-256zM0 896v256h256v-256h-256z" />
    <glyph glyph-name="uni0457" unicode="&#x457;" horiz-adv-x="640" 
d="M128 0v768h256v-768h-256zM0 896v256h128v-256h-128zM384 896v256h128v-256h-128z" />
    <glyph glyph-name="uni1E9E" unicode="&#x1e9e;" 
d="M384 0v128h256v-128h-256zM640 128v384h128v-384h-128zM512 512v128h128v-128h-128zM384 640v128h128v-128h-128zM512 768v128h128v-128h-128zM640 896v128h128v-128h-128zM0 0v1024h128v128h512v-128h-384v-1024h-256z" />
    <glyph glyph-name="quoteleft" unicode="&#x2018;" horiz-adv-x="384" 
d="M0 640v384h128v-128h128v-256h-256zM128 1024v128h128v-128h-128z" />
    <glyph glyph-name="quoteright" unicode="&#x2019;" horiz-adv-x="384" 
d="M0 640v128h128v-128h-128zM128 768v128h-128v256h256v-384h-128z" />
    <glyph glyph-name="quotedblleft" unicode="&#x201c;" horiz-adv-x="768" 
d="M0 640v384h128v-128h128v-256h-256zM384 640v384h128v-128h128v-256h-256zM128 1024v128h128v-128h-128zM512 1024v128h128v-128h-128z" />
    <glyph glyph-name="quotedblright" unicode="&#x201d;" horiz-adv-x="768" 
d="M0 640v128h128v-128h-128zM384 640v128h128v-128h-128zM128 768v128h-128v256h256v-384h-128zM512 768v128h-128v256h256v-384h-128z" />
    <glyph glyph-name="dagger" unicode="&#x2020;" horiz-adv-x="768" 
d="M0 0v1152h640v-640h-128v128h-128v128h128v256h-384v-128h256v-128h-256v-768h-128z" />
  </font>
</defs>
</svg>
